<svg xmlns="http://www.w3.org/2000/svg" version="1.1" xmlns:xlink="http://www.w3.org/1999/xlink" width="200" height="200"><svg xmlns="http://www.w3.org/2000/svg" version="1.1" xmlns:xlink="http://www.w3.org/1999/xlink" viewBox="0 0 200 200"><rect width="200" height="200" fill="url('#gradient')"></rect><defs><linearGradient id="SvgjsLinearGradient1005" gradientTransform="rotate(45 0.5 0.5)"><stop offset="0%" stop-color="#cfecec"></stop><stop offset="100%" stop-color="#abc7db"></stop></linearGradient></defs><g><g fill="#8d8c39" transform="matrix(3.6819816220535357,0,0,3.6819816220535357,6.051661466104335,126.18314622451533)" stroke="#2a4a46" stroke-width="0.2"><path d="M9.89-8.57L9.89-6.03L4.50-6.03L4.50-2.64L10.87-2.64L10.87 0L1.07 0L1.07-14.22L10.89-14.22L10.89-11.57L4.50-11.57L4.50-8.57L9.89-8.57ZM20.36-4.81L23.77-4.81Q23.70-3.33 22.97-2.19Q22.24-1.05 20.91-0.43Q19.59 0.20 17.89 0.20L17.89 0.20Q15.09 0.20 13.48-1.63Q11.87-3.46 11.87-6.79L11.87-6.79L11.87-7.49Q11.87-9.58 12.59-11.15Q13.32-12.71 14.69-13.57Q16.05-14.42 17.85-14.42L17.85-14.42Q20.44-14.42 22.01-13.06Q23.58-11.70 23.80-9.31L23.80-9.31L20.38-9.31Q20.34-10.61 19.73-11.17Q19.11-11.74 17.85-11.74L17.85-11.74Q16.57-11.74 15.98-10.78Q15.38-9.82 15.35-7.72L15.35-7.72L15.35-6.72Q15.35-4.44 15.92-3.47Q16.49-2.49 17.89-2.49L17.89-2.49Q19.07-2.49 19.70-3.05Q20.32-3.60 20.36-4.81L20.36-4.81ZM37.43-7.47L37.43-6.82Q37.43-4.74 36.66-3.13Q35.89-1.53 34.47-0.67Q33.05 0.20 31.23 0.20Q29.41 0.20 28.01-0.64Q26.60-1.47 25.82-3.03Q25.03-4.58 24.99-6.59L24.99-6.59L24.99-7.39Q24.99-9.48 25.76-11.08Q26.52-12.68 27.95-13.54Q29.38-14.41 31.21-14.41L31.21-14.41Q33.02-14.41 34.43-13.55Q35.85-12.70 36.64-11.11Q37.42-9.52 37.43-7.47L37.43-7.47ZM33.95-6.76L33.95-7.41Q33.95-9.53 33.24-10.63Q32.53-11.73 31.21-11.73L31.21-11.73Q28.63-11.73 28.49-7.86L28.49-7.86L28.48-6.82Q28.48-4.73 29.17-3.60Q29.86-2.48 31.23-2.48L31.23-2.48Q32.53-2.48 33.23-3.58Q33.94-4.69 33.95-6.76L33.95-6.76ZM46.53-3.78L46.53-3.78Q46.53-4.53 46.00-4.95Q45.47-5.37 44.13-5.82Q42.79-6.27 41.94-6.69L41.94-6.69Q39.18-8.05 39.18-10.42L39.18-10.42Q39.18-11.60 39.87-12.50Q40.56-13.41 41.82-13.91Q43.08-14.41 44.65-14.41L44.65-14.41Q46.18-14.41 47.40-13.87Q48.61-13.32 49.29-12.31Q49.96-11.30 49.96-10L49.96-10L46.54-10Q46.54-10.87 46.01-11.35Q45.48-11.83 44.57-11.83L44.57-11.83Q43.65-11.83 43.12-11.42Q42.59-11.02 42.59-10.39L42.59-10.39Q42.59-9.84 43.17-9.40Q43.76-8.96 45.23-8.48Q46.71-8.01 47.66-7.46L47.66-7.46Q49.96-6.13 49.96-3.80L49.96-3.80Q49.96-1.93 48.55-0.87Q47.15 0.20 44.70 0.20L44.70 0.20Q42.97 0.20 41.57-0.42Q40.17-1.04 39.46-2.12Q38.75-3.20 38.75-4.61L38.75-4.61L42.19-4.61Q42.19-3.47 42.78-2.92Q43.37-2.38 44.70-2.38L44.70-2.38Q45.55-2.38 46.04-2.75Q46.53-3.12 46.53-3.78Z"></path></g></g></svg><style>@media (prefers-color-scheme: light) { :root { filter: none; } }
@media (prefers-color-scheme: dark) { :root { filter: none; } }
</style></svg>